<svg viewBox="0 0 256 256" xmlns="http://www.w3.org/2000/svg"><path fill="rgb(32, 32, 32)" d="m223.99658 67.50391a35.73557 35.73557 0 0 0 -11.26172-25.66114c-14.01806-13.2705-36.71875-12.771-50.60254 1.11328l-21.94824 21.94874a24.02939 24.02939 0 0 0 -33.15429.75195l-7.02979 7.02978a16.01779 16.01779 0 0 0 0 22.627l2.05908 2.05908-50.34375 50.34322a40.15638 40.15638 0 0 0 -11.01074 35.771l-9.78271 22.40869a13.66329 13.66329 0 0 0 2.87744 15.21728 15.915 15.915 0 0 0 11.27929 4.70313 16.077 16.077 0 0 0 6.43555-1.353l20.999-9.16748a40.15391 40.15391 0 0 0 35.771-11.01123l50.34326-50.34326 2.0591 2.05905a16.01779 16.01779 0 0 0 22.627 0l7.02978-7.02979a24.02843 24.02843 0 0 0 .752-33.15429l22.36036-22.36035a35.71726 35.71726 0 0 0 10.54092-25.95166zm-127.02588 125.46679a24.09567 24.09567 0 0 1 -23.1914 6.21436 8.0052 8.0052 0 0 0 -5.26416.39746l-21.47114 9.37353 9.37353-21.47119a8.00234 8.00234 0 0 0 .39746-5.26416 24.0986 24.0986 0 0 1 6.21436-23.1914l50.34321-50.3433 33.9414 33.9414z"/></svg>